<svg viewBox="0 0 180 200" xmlns="http://www.w3.org/2000/svg">
  <defs>
    <radialGradient id="sleepyBear" cx="40%" cy="40%">
      <stop offset="0%" style="stop-color:#D4A574;stop-opacity:1" />
      <stop offset="100%" style="stop-color:#9D7D5B;stop-opacity:1" />
    </radialGradient>
  </defs>
  <ellipse cx="90" cy="130" rx="50" ry="65" fill="url(#sleepyBear)"/>
  <circle cx="90" cy="55" r="38" fill="url(#sleepyBear)"/>
  <circle cx="60" cy="22" r="16" fill="url(#sleepyBear)"/>
  <circle cx="120" cy="22" r="16" fill="url(#sleepyBear)"/>
  <circle cx="60" cy="22" r="9" fill="#F5E6D3"/>
  <circle cx="120" cy="22" r="9" fill="#F5E6D3"/>
  <circle cx="80" cy="48" r="6" fill="#000"/>
  <circle cx="100" cy="48" r="6" fill="#000"/>
  <circle cx="81" cy="47" r="2" fill="#fff"/>
  <circle cx="101" cy="47" r="2" fill="#fff"/>
  <path d="M 70 50 Q 75 55 80 50" stroke="#000" stroke-width="2" fill="none" stroke-linecap="round"/>
  <path d="M 100 50 Q 105 55 110 50" stroke="#000" stroke-width="2" fill="none" stroke-linecap="round"/>
  <ellipse cx="90" cy="62" rx="5" ry="5" fill="#000"/>
  <path d="M 90 62 Q 88 68 86 70" stroke="#000" stroke-width="1.5" fill="none" stroke-linecap="round"/>
  <path d="M 90 62 Q 92 68 94 70" stroke="#000" stroke-width="1.5" fill="none" stroke-linecap="round"/>
  <ellipse cx="55" cy="110" rx="16" ry="40" fill="url(#sleepyBear)"/>
  <ellipse cx="125" cy="110" rx="16" ry="40" fill="url(#sleepyBear)"/>
  <ellipse cx="45" cy="148" rx="12" ry="15" fill="#F5E6D3"/>
  <ellipse cx="135" cy="148" rx="12" ry="15" fill="#F5E6D3"/>
  <ellipse cx="70" cy="185" rx="14" ry="28" fill="url(#sleepyBear)"/>
  <ellipse cx="110" cy="185" rx="14" ry="28" fill="url(#sleepyBear)"/>
  <ellipse cx="70" cy="210" rx="15" ry="10" fill="#F5E6D3"/>
  <ellipse cx="110" cy="210" rx="15" ry="10" fill="#F5E6D3"/>
  <ellipse cx="90" cy="130" rx="28" ry="40" fill="#F5E6D3" opacity="0.8"/>
  <text x="90" y="30" font-size="14" text-anchor="middle" fill="#FFD700">Zzz</text>
</svg>